<?xml version="1.0" encoding="UTF-8"?>
<svg version="1.1" xmlns="http://www.w3.org/2000/svg" width="48" height="48">
<path d="M0 0 C0.81984375 -0.01546875 1.6396875 -0.0309375 2.484375 -0.046875 C8.43011253 -0.00801397 8.43011253 -0.00801397 11.05078125 2.328125 C12.28488049 5.15182532 12.20769634 7.45378698 12 10.5 C12.69867188 10.47679687 13.39734375 10.45359375 14.1171875 10.4296875 C15.48230469 10.40261719 15.48230469 10.40261719 16.875 10.375 C18.23238281 10.34019531 18.23238281 10.34019531 19.6171875 10.3046875 C22 10.5 22 10.5 24 12.5 C24.18737649 15.14116113 24.25569866 17.6755398 24.23046875 20.31640625 C24.23001053 21.08806625 24.22955231 21.85972626 24.2290802 22.6547699 C24.22605787 24.28638242 24.21817213 25.91799205 24.20581055 27.54956055 C24.18754787 30.05593 24.18530088 32.56193033 24.18554688 35.06835938 C24.18063198 36.65104488 24.17480379 38.23372787 24.16796875 39.81640625 C24.16685593 40.57055313 24.1657431 41.32470001 24.16459656 42.10169983 C24.11605119 47.38394881 24.11605119 47.38394881 23 48.5 C21.56259647 48.59813987 20.12043673 48.6279828 18.6796875 48.62939453 C17.76203613 48.63254669 16.84438477 48.63569885 15.89892578 48.63894653 C14.90103027 48.6369223 13.90313477 48.63489807 12.875 48.6328125 C11.85776855 48.63376923 10.84053711 48.63472595 9.79248047 48.63571167 C7.63704364 48.63639361 5.48160478 48.63453835 3.32617188 48.63037109 C0.01427629 48.62502305 -3.29748367 48.63031563 -6.609375 48.63671875 C-8.69791697 48.63605797 -10.78645885 48.63477681 -12.875 48.6328125 C-14.37184326 48.63584885 -14.37184326 48.63584885 -15.89892578 48.63894653 C-16.81657715 48.63579437 -17.73422852 48.63264221 -18.6796875 48.62939453 C-19.49163574 48.62859894 -20.30358398 48.62780334 -21.14013672 48.62698364 C-23 48.5 -23 48.5 -24 47.5 C-24.11332093 44.92980515 -24.16417485 42.38748523 -24.16796875 39.81640625 C-24.17296135 38.66035133 -24.17296135 38.66035133 -24.17805481 37.48094177 C-24.1831271 35.84757079 -24.18546304 34.2141894 -24.18530273 32.58081055 C-24.1874878 30.07648701 -24.20563595 27.57260479 -24.22460938 25.06835938 C-24.22754347 23.48437651 -24.22952816 21.90039155 -24.23046875 20.31640625 C-24.23765427 19.5642836 -24.24483978 18.81216095 -24.25224304 18.0372467 C-24.22882279 12.72882279 -24.22882279 12.72882279 -22 10.5 C-19.6171875 10.3046875 -19.6171875 10.3046875 -16.875 10.375 C-15.50988281 10.40207031 -15.50988281 10.40207031 -14.1171875 10.4296875 C-13.41851562 10.45289063 -12.71984375 10.47609375 -12 10.5 C-12.061875 9.5925 -12.12375 8.685 -12.1875 7.75 C-11.72059286 -0.34305707 -6.79447245 -0.12819759 0 0 Z M-6 6.5 C-6.33 7.82 -6.66 9.14 -7 10.5 C-2.38 10.5 2.24 10.5 7 10.5 C6.67 9.18 6.34 7.86 6 6.5 C2.04 6.5 -1.92 6.5 -6 6.5 Z " fill="#994D1B" transform="translate(24,-0.5)"/>
<path d="M0 0 C0.66 0.66 1.32 1.32 2 2 C4.02009808 2.29151422 4.02009808 2.29151422 6.35791016 2.22705078 C7.25869293 2.22689972 8.15947571 2.22674866 9.08755493 2.22659302 C10.06155243 2.21627045 11.03554993 2.20594788 12.0390625 2.1953125 C13.53305069 2.19106766 13.53305069 2.19106766 15.05722046 2.18673706 C18.24660118 2.1755184 21.43570378 2.15041081 24.625 2.125 C26.78385012 2.11497238 28.94270463 2.10584615 31.1015625 2.09765625 C36.40113699 2.07557361 41.70054863 2.04207958 47 2 C47.33 1.34 47.66 0.68 48 0 C48.02887814 3.47914941 48.04675687 6.95826831 48.0625 10.4375 C48.07087891 11.43072266 48.07925781 12.42394531 48.08789062 13.44726562 C48.09111328 14.39150391 48.09433594 15.33574219 48.09765625 16.30859375 C48.10289307 17.18314209 48.10812988 18.05769043 48.11352539 18.95874023 C48 21 48 21 47 22 C45.56259647 22.09813987 44.12043673 22.1279828 42.6796875 22.12939453 C41.76203613 22.13254669 40.84438477 22.13569885 39.89892578 22.13894653 C38.90103027 22.1369223 37.90313477 22.13489807 36.875 22.1328125 C35.85776855 22.13376923 34.84053711 22.13472595 33.79248047 22.13571167 C31.63704364 22.13639361 29.48160478 22.13453835 27.32617188 22.13037109 C24.01427629 22.12502305 20.70251633 22.13031563 17.390625 22.13671875 C15.30208303 22.13605797 13.21354115 22.13477681 11.125 22.1328125 C9.62815674 22.13584885 9.62815674 22.13584885 8.10107422 22.13894653 C7.18342285 22.13579437 6.26577148 22.13264221 5.3203125 22.12939453 C4.50836426 22.12859894 3.69641602 22.12780334 2.85986328 22.12698364 C1 22 1 22 0 21 C-0.08685603 19.43827255 -0.10702219 17.87270656 -0.09765625 16.30859375 C-0.09443359 15.36435547 -0.09121094 14.42011719 -0.08789062 13.44726562 C-0.07951172 12.45404297 -0.07113281 11.46082031 -0.0625 10.4375 C-0.05798828 9.44041016 -0.05347656 8.44332031 -0.04882812 7.41601562 C-0.03700007 4.94395151 -0.02051849 2.47200482 0 0 Z " fill="#994D1B" transform="translate(0,26)"/>
<path d="M0 0 C0.66 0.66 1.32 1.32 2 2 C4.02009808 2.29151422 4.02009808 2.29151422 6.35791016 2.22705078 C7.25869293 2.22689972 8.15947571 2.22674866 9.08755493 2.22659302 C10.06155243 2.21627045 11.03554993 2.20594788 12.0390625 2.1953125 C13.53305069 2.19106766 13.53305069 2.19106766 15.05722046 2.18673706 C18.24660118 2.1755184 21.43570378 2.15041081 24.625 2.125 C26.78385012 2.11497238 28.94270463 2.10584615 31.1015625 2.09765625 C36.40113699 2.07557361 41.70054863 2.04207958 47 2 C47.33 1.34 47.66 0.68 48 0 C47.42655063 2.86724686 47.1385485 3.8614515 45 6 C43.18519592 6.26069641 43.18519592 6.26069641 40.96508789 6.2746582 C40.13405045 6.28419022 39.303013 6.29372223 38.4467926 6.30354309 C37.54782761 6.30263168 36.64886261 6.30172028 35.72265625 6.30078125 C34.80036728 6.30506638 33.87807831 6.3093515 32.92784119 6.31376648 C30.97509584 6.31951559 29.02232908 6.32000578 27.06958008 6.31567383 C24.07791665 6.31251627 21.08724401 6.3359573 18.09570312 6.36132812 C16.20052208 6.36360126 14.30533838 6.36430455 12.41015625 6.36328125 C11.51321548 6.372491 10.61627472 6.38170074 9.69215393 6.39118958 C8.85796432 6.38496078 8.02377472 6.37873199 7.16430664 6.37231445 C6.4308754 6.37294388 5.69744415 6.3735733 4.94178772 6.3742218 C2.42237374 5.88867973 1.51953927 5.03984872 0 3 C0 2.01 0 1.02 0 0 Z " fill="#6D2713" transform="translate(0,26)"/>
<path d="M0 0 C2.05078125 0.03255208 4.1015625 0.06510417 6.15234375 0.09765625 C6.53453142 1.75380282 6.86629477 3.42222649 7.15234375 5.09765625 C6.15234375 6.09765625 6.15234375 6.09765625 4.3046875 6.1953125 C2.25390625 6.16276042 0.203125 6.13020833 -1.84765625 6.09765625 C-2.22984392 4.44150968 -2.56160727 2.77308601 -2.84765625 1.09765625 C-1.84765625 0.09765625 -1.84765625 0.09765625 0 0 Z " fill="#C4C2C0" transform="translate(21.84765625,20.90234375)"/>
</svg>
